<?xml version="1.0" encoding="iso-8859-1"?>
<!-- Generator: Adobe Illustrator 19.0.0, SVG Export Plug-In . SVG Version: 6.00 Build 0)  -->
<svg version="1.1" id="Layer_1" xmlns="http://www.w3.org/2000/svg" xmlns:xlink="http://www.w3.org/1999/xlink" x="0px" y="0px"
	 viewBox="0 0 511.997 511.997" style="enable-background:new 0 0 511.997 511.997;" xml:space="preserve">
<path style="fill:#8C5F50;" d="M152.556,114.136l-10.449-1.101l0.111,32.807c0,0,90.356,90.471,98.656,301.475l34.786,2.174
	C265.514,219.657,152.556,114.136,152.556,114.136z"/>
<path style="fill:#9B735A;" d="M379.921,161.422c0,0-99.465,86.421-104.085,286.71l35.601-0.815
	c3.805-184.255,76.094-256.001,76.094-256.001l1.184-35.329L379.921,161.422z"/>
<path style="fill:#B4E66E;" d="M142.108,113.034c-55.91,42.306-98.781,107.208-98.781,107.208
	C29.126,178.235,60.117,110.146,142.108,113.034L142.108,113.034z"/>
<path style="fill:#C8FF82;" d="M142.108,113.034c-71.274-19.113-120.813-0.564-120.813-0.564
	C53.448,63.792,99.802,57.123,142.108,113.034L142.108,113.034z"/>
<path style="fill:#A0D755;" d="M142.108,113.034c0,0-70.975,50.999-4.911,113.281L142.108,113.034"/>
<path style="fill:#B4E66E;" d="M142.108,113.034c64.605-27.242,142.248-31.886,142.248-31.886
	C255.09,47.833,180.632,40.599,142.108,113.034L142.108,113.034z"/>
<path style="fill:#C8FF82;" d="M142.108,113.034C161.22,41.76,202.067,8.147,202.067,8.147
	C143.834,11.631,114.866,48.429,142.108,113.034L142.108,113.034z"/>
<path style="fill:#A0D755;" d="M142.108,113.034c0,0,79.669-35.935,100.539,52.427L142.108,113.034"/>
<path style="fill:#B4E66E;" d="M388.714,155.987c47.198,35.713,83.387,90.5,83.387,90.5
	C484.089,211.026,457.927,153.55,388.714,155.987L388.714,155.987z"/>
<path style="fill:#C8FF82;" d="M388.714,155.987c60.166-16.134,101.985-0.476,101.985-0.476
	C463.556,114.419,424.426,108.79,388.714,155.987L388.714,155.987z"/>
<path style="fill:#A0D755;" d="M388.714,155.987c0,0,59.914,43.052,4.146,95.627L388.714,155.987"/>
<path style="fill:#B4E66E;" d="M388.714,155.987c-54.536-22.997-120.079-26.918-120.079-26.918
	C293.338,100.948,356.194,94.841,388.714,155.987L388.714,155.987z"/>
<path style="fill:#C8FF82;" d="M388.714,155.987C372.58,95.821,338.1,67.448,338.1,67.448
	C387.256,70.387,411.709,101.451,388.714,155.987L388.714,155.987z"/>
<path style="fill:#A0D755;" d="M388.714,155.987c0,0-67.253-30.334-84.87,44.256L388.714,155.987"/>
<path style="fill:#FFF082;" d="M258.171,442.969c-89.794,0-166.482,25.25-197.3,60.875h394.6
	C424.653,468.218,347.965,442.969,258.171,442.969z"/>
<path style="fill:#FFDC64;" d="M179.041,492.981c22.225-25.833,62.72-44.448,110.517-48.943
	c-10.247-0.688-20.715-1.069-31.388-1.069c-80.365,0-150.233,20.225-186.113,50.013c-4.483,3.722-1.706,10.862,4.197,10.862h105.784
	C177.823,503.844,175.839,496.703,179.041,492.981z"/>
<path d="M497.501,151.016c-15.357-23.249-34.206-35.881-54.51-36.531c-14.452-0.457-27.258,5.277-38.027,13.349
	c1.603-13.364,0.161-27.321-7.473-39.607c-10.722-17.255-31.091-27.253-58.904-28.918c-3.533-0.201-6.784,1.873-8.076,5.159
	c-1.291,3.287-0.318,7.031,2.408,9.276c0.228,0.187,16.209,13.613,31.003,41.287c-11.118-7.69-23.617-12.489-37.039-14.052
	c-24.477-2.858-49.748,6.062-64.373,22.712c-2.055,2.338-2.597,5.643-1.399,8.517c1.198,2.874,3.929,4.815,7.035,5.002
	c0.432,0.026,29.573,1.883,64.594,9.825c-0.566,0.255-1.133,0.503-1.697,0.781c-17.416,8.576-29.236,25.585-35.133,50.555
	c-0.733,3.105,0.411,6.352,2.93,8.311c1.461,1.136,3.227,1.718,5.006,1.718c1.287,0,2.582-0.304,3.769-0.924l38.947-20.308
	c-19.829,26.891-46.153,72.519-63.086,140.792c-1.084,4.371,1.581,8.792,5.951,9.876c0.659,0.163,1.32,0.242,1.97,0.242
	c3.659,0,6.986-2.481,7.906-6.192c14.708-59.296,36.963-100.399,53.044-124.438c12.863-19.229,23.925-30.897,28.892-35.738
	l0.538,12.414c-4.869,5.406-20.644,24.385-36.961,59.843c-17.135,37.24-38.174,100.692-42.265,192.834
	c-6.311-0.567-12.685-1.01-19.113-1.332c-6.291-116.446-38.842-196.575-65.354-243.573c-10.709-18.984-21.232-34.167-30.368-45.882
	l51.164,26.681c1.188,0.619,2.481,0.924,3.769,0.924c1.778,0,3.546-0.582,5.006-1.718c2.518-1.958,3.662-5.205,2.93-8.309
	c-6.879-29.123-20.613-48.935-40.82-58.884c-2.072-1.02-4.16-1.907-6.255-2.678c43.634-10.338,80.806-12.705,81.338-12.738
	c3.108-0.187,5.839-2.127,7.036-5.002s0.655-6.179-1.399-8.517c-17.011-19.364-46.432-29.732-74.954-26.403
	c-17.728,2.065-34.082,8.98-48.287,20.157c18.409-36.791,39.728-54.846,40.007-55.078c2.726-2.244,3.699-5.987,2.408-9.275
	c-1.29-3.287-4.555-5.355-8.076-5.159c-32.44,1.94-56.157,13.542-68.59,33.549c-9.523,15.325-10.721,32.949-8.139,49.573
	c-13.104-10.556-28.966-18.34-46.993-17.756c-23.544,0.75-45.455,15.482-63.366,42.597c-1.944,2.942-1.768,6.794,0.423,9.557
	c2.19,2.762,5.917,3.801,9.221,2.578c0.352-0.13,26.653-9.57,67.736-7.096c-16.792,6.707-30.967,17.411-41.629,31.731
	c-17.148,23.032-22.897,53.692-14.641,78.107c0.997,2.949,3.587,5.073,6.674,5.473c0.351,0.046,0.702,0.068,1.05,0.068
	c2.713,0,5.279-1.357,6.801-3.658c0.294-0.445,20.943-31.444,51.726-64.051c-0.38,2.2-0.658,4.453-0.811,6.756
	c-1.495,22.475,8.787,44.278,30.56,64.805c1.541,1.453,3.551,2.221,5.594,2.221c1.033,0,2.074-0.196,3.065-0.599
	c2.956-1.2,4.94-4.013,5.078-7.201l2.568-59.23c24.223,30.777,76.791,114.457,84.461,268.043
	c-36.098,1.853-70.342,7.58-100.236,16.841c-36.955,11.448-64.682,27.475-80.184,46.349c-2.001,2.436-2.419,5.808-1.071,8.658
	c1.348,2.851,4.218,4.669,7.371,4.669h400.035c3.152,0,6.023-1.818,7.371-4.669c1.347-2.85,0.93-6.222-1.071-8.658
	c-16.88-20.552-49.238-38.138-91.112-49.523c-4.344-1.182-8.825,1.384-10.006,5.729c-1.181,4.345,1.384,8.825,5.729,10.006
	c28.72,7.808,52.337,18.473,68.628,30.809H78.755c14.293-10.788,34.273-20.382,58.204-27.795
	c35.425-10.974,77.373-16.774,121.308-16.774c26.574,0,52.444,2.12,76.888,6.302c4.444,0.763,8.652-2.223,9.411-6.661
	s-2.223-8.652-6.661-9.411c-6.285-1.075-12.66-2.018-19.111-2.828c3.839-89.458,23.99-150.845,40.386-186.773
	c8.639-18.93,17.143-32.925,23.687-42.406l1.848,42.622c0.138,3.187,2.123,6.001,5.078,7.201c0.992,0.403,2.033,0.599,3.065,0.599
	c2.043,0,4.054-0.767,5.594-2.221c18.669-17.6,27.482-36.346,26.194-55.715c-0.041-0.626-0.111-1.241-0.173-1.859
	c24.399,26.348,40.587,50.65,40.825,51.011c1.521,2.301,4.087,3.657,6.8,3.657c0.348,0,0.7-0.023,1.051-0.068
	c3.087-0.401,5.678-2.524,6.674-5.473c7.097-20.994,2.173-47.332-12.546-67.1c-8.063-10.828-18.459-19.244-30.666-25.023
	c9.445-0.315,17.617,0.1,24.152,0.764c16.935,1.721,26.995,5.377,27.075,5.407c3.309,1.237,7.035,0.205,9.236-2.556
	C499.276,157.828,499.448,153.963,497.501,151.016z M228.763,149.026l-64.9-33.842c11.092-1.945,25.569-2.318,38.696,4.147
	C213.837,124.883,222.609,134.838,228.763,149.026z M217.415,65.56c2.969-0.346,5.942-0.515,8.905-0.515
	c13.509,0,26.732,3.519,37.562,9.83c-22.887,2.643-62.167,8.679-101.037,21.668C177.629,78.799,196.44,68.003,217.415,65.56z
	 M146.841,42.164c6.553-10.544,17.724-18.071,32.834-22.264c-11.352,13.876-26.172,35.898-37.647,66.625
	C138.133,68.7,139.726,53.613,146.841,42.164z M77.897,96.196c-13.928,0-25.819,1.231-35.222,2.764
	C53.865,87.977,65.972,82.07,78.38,81.672c13.463-0.43,27.331,5.739,40.817,18.029C104.04,97.152,90.178,96.196,77.897,96.196z
	 M48.141,199.377c-0.057-15.284,5.261-31.567,15.184-44.894c12.612-16.94,31.368-27.824,54.131-31.746
	C86.762,149.892,61.879,180.883,48.141,199.377z M129.914,206.07c-9.181-12.395-13.412-24.937-12.607-37.447
	c0.937-14.548,8.521-26.933,15.774-35.609L129.914,206.07z M248.664,434.914c-5.283-106.253-31.806-179.437-53.418-222.436
	c-20.331-40.449-39.926-62.27-46.305-68.798l0.67-15.436c9.951,8.594,32.934,33.615,54.749,72.514
	c25.339,45.18,56.441,122.142,62.72,234.148c-2.931-0.05-5.865-0.088-8.812-0.088C255.056,434.816,251.855,434.854,248.664,434.914z
	 M383.64,96.833c5.247,8.444,6.817,19.351,4.731,32.177c-8.617-21.717-19.108-38.024-27.806-49.202
	C369.74,82.952,378.277,88.202,383.64,96.833z M324.995,117.173c15.967,1.86,30.428,9.576,42.192,22.246
	c-29.282-9.32-58.32-14.087-77.13-16.426C300.35,117.947,312.754,115.747,324.995,117.173z M338.158,162.486
	c6.67-3.306,13.815-4.438,20.479-4.438c2.629,0,5.182,0.176,7.601,0.465l-47.943,25
	C323.228,173.633,329.872,166.591,338.158,162.486z M400.115,230.729l-2.346-54.096c5.143,6.856,9.915,15.879,10.606,26.279
	C408.992,212.176,406.221,221.483,400.115,230.729z M454.2,191.735c7.36,9.885,11.661,21.725,12.441,33.16
	c-11.436-15.114-30.094-37.873-52.812-58.561C430.683,170.182,444.601,178.844,454.2,191.735z M412.243,142.787
	c9.7-7.927,19.552-12.022,29.15-12.022c0.359,0,0.719,0.005,1.076,0.017c10.155,0.325,18.974,5.091,26.288,11.46
	C454.723,140.305,435.357,139.38,412.243,142.787z"/>
<g>
</g>
<g>
</g>
<g>
</g>
<g>
</g>
<g>
</g>
<g>
</g>
<g>
</g>
<g>
</g>
<g>
</g>
<g>
</g>
<g>
</g>
<g>
</g>
<g>
</g>
<g>
</g>
<g>
</g>
</svg>
